<?xml version="1.0" encoding="UTF-8"?>
<svg id="Layer_2" data-name="Layer 2" xmlns="http://www.w3.org/2000/svg" viewBox="0 0 31.51 78.88">
  <g id="Layer_1-2" data-name="Layer 1">
    <g>
      <path d="M17.84,30.92c-1.39.59-2.75.97-4.23,1.06-2.58.15-4.87-1.34-6.72-3.05-1.42-1.32-2.57-2.85-3.57-4.53C1.7,21.64.62,18.62.17,15.45-.56,10.26,1,5.12,5.63,2.35c1.72-1.02,3.58-1.67,5.57-2.02,4.68-.83,9.91-.12,13.97,2.42,1.43.89,2.64,1.97,3.69,3.29,1.12,1.41,1.85,3.01,2.27,4.76,1.47,6.02-1.52,11.24-5.83,15.24-2.2,2.04-4.66,3.69-7.45,4.88Z" fill="#9bea37"/>
      <path d="M17.28,25.16c.56.63,1.24,1.06,2.07,1.28-.49.1-.9-.09-1.33-.24-2.69,1.74-6.08,2.53-8.61.26-.76-.68-1.32-1.51-1.76-2.42-.56-.21-1.06-.56-1.19-1.19.62.75,1.37,1.14,2.34,1.04-.25.16-.49.14-.79.19.83,1.66,2.11,2.98,3.95,3.36,2.01.41,4.11-.33,5.84-1.44-.22-.29-.47-.46-.52-.84Z" fill="#030803"/>
      <path d="M8.85,11.13c-1.29-1.49-3-1.66-4.93-1.54,1.21-.87,2.72-1.09,3.85-.12.49.47.92.96,1.08,1.66Z" fill="#010303"/>
      <path d="M24.76,11.98c-1.9-.17-4.11.09-5.31,1.58.42-1.32,1.65-2.11,3-2.18.81-.04,1.6.18,2.31.6Z" fill="#010202"/>
      <path d="M13.93,28.87c-.99.74-2.48.61-3.35-.34,1.1.52,2.14.66,3.35.34Z" fill="#081205"/>
      <path d="M14.3,24.24c-.99.6-2.36.5-3.03-.54.42.24.74.5,1.2.53.59.13,1.16.07,1.82.01Z" fill="#081005"/>
      <path d="M23.7,22.49c-1.92.78-3.95.42-5.84-.31-.56-.22-1.1-.44-1.55-.83-.79-.69.14-1.94.83-2.71,1.74-1.94,3.91-2.92,6.52-2.27,1.6.4,3.08,1.24,2.68,3.02-.31,1.38-1.31,2.56-2.64,3.1Z" fill="#000201"/>
      <path d="M20.19,19.32c-.41.26-.87.04-1-.37-.18-.56.07-1.16.59-1.44.35-.19.74-.03.89.35.2.5,0,1.15-.48,1.46Z" fill="#fefdfc"/>
      <path d="M21.96,18.79c-.01.27-.18.47-.4.46s-.38-.2-.41-.43c-.02-.17,0-.34.13-.46.11-.1.31-.15.46-.04.12.09.23.24.22.47Z" fill="#fafaf9"/>
      <path d="M10.36,20.2c-2.4.67-4.95.39-6.81-1.35-.57-.53-1.01-1.18-1.29-1.89-.26-.65-.09-1.31.39-1.78.37-.36.76-.65,1.25-.82.64-.22,1.31-.35,2-.3,2.84.23,4.99,2.6,4.98,5.45,0,.32-.22.6-.52.69Z" fill="#000201"/>
      <path d="M5.39,16.76c-.26.15-.51.14-.73.01-.19-.11-.32-.32-.32-.59,0-.51.3-.98.77-1.16.38-.15.79.05.88.46.11.5-.14,1.03-.6,1.29Z" fill="#fdfefc"/>
      <path d="M6.69,16.9c-.26-.02-.35-.27-.37-.43-.02-.21.04-.46.28-.52.3-.07.5.16.53.41s-.11.56-.44.54Z" fill="#fcfcfc"/>
      <path d="M11.45,57.79c-.06.83-.29,1.6-.46,2.39l-.46,2.23c-.31,1.49-.14,2.97.08,4.48l.57,3.95.13,2.89c.02.51.12.95.38,1.38.21.36.35.75.41,1.16.1.77-.36,1.4-1.11,1.6-1.58.42-3.08-.09-4.93.46-.59.17-1.16.29-1.78.34-1.02.08-2.39-.21-2.79-1.13-.2-.47.64-.3,1.76-.76l2.13-.88c.95-.39,1.83-.83,2.68-1.4.76-.51.71-.81.55-1.7l-.6-3.29c-.13-.72-.17-1.42.01-2.14.03-.13.17-.37.03-.48-.29-.23-.53-.51-.61-.9-.17-.64-.09-1.28.1-1.93l-.62-3.45c-.24-1.9-.16-3.74.28-5.61.55-2.32.95-4.61,1.09-7,.06-1.41-.11-2.75-.58-4.11,1.03-.29,1.98-.69,3-1.12.97.64,1.93,1.25,2.97,1.79.79.41,1.56.76,2.4,1.05l-.63,1.56c-.91,2.26-1.22,4.02-.27,6.45l3.12,7.98c.25.63.33,1.37.74,1.9,1.33,1.73,2.46,3.51,3.31,5.54.65,1.54,1.26,3.03,1.76,4.63l1.18,1.14c.81.79,2.18,2.06,1.7,3.04-.44.9-2.64,1-3.81,1.02-.76.01-1.49-.1-2.17-.4-.93-.41-.13-1.66.61-2.42l1.15-1.17c.28-.29.17-.83-.06-1.13l-1.01-1.32-2.56-3.27c-1.05-1.34-1.46-2.95-2.26-3.83-.63-.7-1.17-1.42-1.67-2.23l-3.09-4.99-.4-.93c-.03-.08-.04-.16-.13-.16s-.22.05-.2.16l.08.6Z" fill="#9ae937"/>
      <path d="M14.9,41.42c.38,0,.7-.04,1.01.08l1.3.49c-.29-.35-.65-.54-1.05-.75-.07-1.06-.04-2.11.13-3.18.02-.14.13-.26.07-.42-.25.49-.42,1.01-.48,1.58l-.13,1.21-.71-.7c-.5-.49-1.27-.58-1.94-.34-.35.12-.69.22-1.07.24l-1.83.09c-.28-.67-.47-1.38-.93-1.96-.62-.79-1.57-1.19-2.59-1.34.54-1.12,1.16-2.36,2.48-2.06,1,.23,1.99.24,2.99,0,.22.44.57.69,1,.84.65.24,1.34.13,1.82-.4.93.32,1.85.42,2.8.56,1.35.2,1.64,2.24,1.61,3.59l-.06,2.7c-.02.93-.12,1.85-.42,2.71s-1.07,1.25-1.9,1.04c-2.14-.52-4-1.64-5.83-2.85l1.45-.69c.71-.33,1.44-.47,2.26-.46Z" fill="#9ae936"/>
      <path d="M5.6,40.89c-.02.09.02.1.11.1l1.8-.48c1.52-.25,3.02-.37,4.55-.45.39-.02.75-.08,1.11-.23,1.06-.42,1.75.27,2.41,1.16l-1.64.07c-.56.02-1.07.25-1.58.48l-2.91,1.29c-.8.36-1.6.62-2.46.8-1.25.27-2.81.12-3.02-1.09-.11-.62.05-1.24.33-1.79l.98-1.87c.32.2.59.29.98.41-.27.16-.44.36-.5.58-.1.3,0,.55.2.8l-.36.23Z" fill="#9ae836"/>
      <path d="M7.77,38.91c-.76.07-2.37-.15-2.25-.57s1.66-.16,2.45-.09c-.54-.46-1.1-.83-1.76-1.11-.41-.17.38-.54,1.45,0,.46.23.94.46,1.25.87.4.53.6,1.14.85,1.79-1.17.12-2.29.26-3.4.59-.12-.01-.19-.16-.21-.23-.07-.39.49-.6.95-.87l.66-.38Z" fill="#9ae936"/>
      <path d="M14.59,34.59c-.57.5-1.6.33-1.95-.35.04-.59.31-1.18.3-1.8.76.03,1.44-.05,2.19-.2-.19.39-.29.75-.36,1.16l-.19,1.19Z" fill="#9ae836"/>
      <path d="M6.26,37.7h-.34c0-.11.06-.17.13-.15.08.02.16.04.22.15Z" fill="#7ca74b"/>
      <path d="M5.71,40.99c-.17.04-.29.2-.51.15l.4-.26c.01.07.07.09.11.1Z" fill="#223613"/>
    </g>
  </g>
</svg>