<?xml version="1.0" encoding="UTF-8"?>
<svg id="Layer_2" data-name="Layer 2" xmlns="http://www.w3.org/2000/svg" viewBox="0 0 161.66 47.69">
  <g id="Layer_1-2" data-name="Layer 1">
    <g>
      <path d="M6.54,27.56c.28-.88.7-1.53,1.26-1.93.56-.4,1.22-.6,1.97-.6h7.57c.76,0,1.41.2,1.97.6.56.4.98,1.04,1.26,1.93l6.54,20.13h-3.24l-2.3-7.09h-13.46l.84-2.91h11.75l-3.07-9.74h-8.16l-6.25,19.74H0l6.54-20.13Z"/>
      <path d="M28.74,31.83h2.98v13.04h13.01v-13.04h2.98v13.5c0,.65-.23,1.2-.68,1.67-.45.46-1.01.7-1.68.7h-14.24c-.67,0-1.23-.23-1.68-.7-.45-.46-.68-1.02-.68-1.67v-13.5Z"/>
      <path d="M54.15,34.65h-4.5v-2.82h4.5v-4.85h2.98v4.85h9.16v2.82h-9.16v10.23h9.32v2.82h-9.94c-.65,0-1.2-.23-1.67-.68-.46-.45-.7-1.01-.7-1.68v-10.68Z"/>
      <path d="M69.03,34.2c0-.67.23-1.23.7-1.68.46-.45,1.02-.68,1.67-.68h14.34c.65,0,1.2.23,1.67.68.46.45.7,1.01.7,1.68v11.13c0,.67-.23,1.23-.7,1.68-.46.45-1.02.68-1.67.68h-14.34c-.65,0-1.2-.23-1.67-.68-.46-.45-.7-1.01-.7-1.68v-11.13ZM85.12,44.88v-10.23h-13.11v10.23h13.11Z"/>
      <path d="M91.33,34.2c0-.67.23-1.23.7-1.68.46-.45,1.02-.68,1.67-.68h14.6c.65,0,1.2.23,1.67.68.46.45.7,1.01.7,1.68v6.12c0,.65-.23,1.2-.68,1.67-.45.46-1.01.7-1.68.7h-13.98v5.02h-2.98v-13.5ZM107.68,39.96v-5.37h-13.37v5.37h13.37Z"/>
      <path d="M113.95,25.04h2.98v22.66h-2.98v-22.66Z"/>
      <path d="M120.82,34.2c0-.67.23-1.23.7-1.68.46-.45,1.02-.68,1.67-.68h14.69c.65,0,1.2.23,1.67.68s.7,1.01.7,1.68v5.05c0,.67-.23,1.23-.7,1.68s-1.02.68-1.67.68h-14.08v3.43h16.15v2.65h-16.77c-.65,0-1.2-.23-1.67-.68-.46-.45-.7-1.01-.7-1.68v-11.13ZM137.26,39.05v-4.63h-13.46v4.63h13.46Z"/>
      <path d="M149.65,39.7l-7.96-7.86h3.95l5.99,5.99,6.02-5.99h3.85l-7.99,7.83,8.16,8.03h-3.95l-6.18-6.15-6.18,6.15h-3.82l8.12-7.99Z"/>
      <g>
        <path d="M5.58,0h3.31v10.2h8.14L25.66.03h3.76l-9.64,11.31,10.89,11.61h-4.18l-9.47-9.8h-8.14v9.8h-3.31V0Z"/>
        <path d="M31.99,9.28c0-.68.25-1.25.75-1.71s1.1-.69,1.79-.69h15.8c.7,0,1.29.23,1.79.69s.75,1.03.75,1.71v5.12c0,.68-.25,1.25-.75,1.71s-1.1.69-1.79.69h-15.14v3.48h17.36v2.69h-18.03c-.7,0-1.29-.23-1.79-.69s-.75-1.03-.75-1.71v-11.28ZM49.67,14.2v-4.69h-14.48v4.69h14.48Z"/>
        <path d="M56.35,0h3.2v22.95h-3.2V0Z"/>
        <path d="M64.42,0h3.2v22.95h-3.2V0Z"/>
        <path d="M71.8,9.28c0-.68.25-1.25.75-1.71s1.1-.69,1.79-.69h15.8c.7,0,1.29.23,1.79.69s.75,1.03.75,1.71v5.12c0,.68-.25,1.25-.75,1.71s-1.1.69-1.79.69h-15.14v3.48h17.36v2.69h-18.03c-.7,0-1.29-.23-1.79-.69s-.75-1.03-.75-1.71v-11.28ZM89.48,14.2v-4.69h-14.48v4.69h14.48Z"/>
        <path d="M96.23,20.36h17.5v-3.57h-15.73c-.7,0-1.29-.23-1.79-.69-.5-.46-.75-1.03-.75-1.71v-7.54h3.2v7.35h15.07v-7.35h3.2v13.71c0,.68-.25,1.25-.75,1.71s-1.1.69-1.79.69h-18.16v-2.59Z"/>
      </g>
    </g>
  </g>
</svg>