<?xml version="1.0" encoding="UTF-8"?>
<svg id="Layer_2" data-name="Layer 2" xmlns="http://www.w3.org/2000/svg" viewBox="0 0 308.52 55">
  <g id="Layer_1-2" data-name="Layer 1">
    <g>
      <path d="M12.44,21.56c-.97.41-1.92.68-2.95.74-1.8.1-3.4-.93-4.68-2.13-.99-.92-1.79-1.99-2.49-3.16C1.19,15.09.43,12.98.12,10.77-.39,7.15.7,3.57,3.93,1.64,5.12.93,6.42.47,7.81.23c3.26-.58,6.91-.08,9.74,1.69,1,.62,1.84,1.37,2.57,2.29.78.98,1.29,2.1,1.59,3.32,1.03,4.19-1.06,7.84-4.07,10.63-1.53,1.42-3.25,2.57-5.19,3.4Z" fill="#9bea37"/>
      <path d="M12.05,17.55c.39.44.86.74,1.44.9-.34.07-.63-.06-.93-.17-1.87,1.21-4.24,1.76-6,.18-.53-.48-.92-1.05-1.23-1.69-.39-.15-.74-.39-.83-.83.43.52.96.79,1.63.72-.17.11-.34.1-.55.13.58,1.16,1.47,2.08,2.75,2.34,1.4.29,2.87-.23,4.07-1-.15-.21-.33-.32-.37-.58Z" fill="#030803"/>
      <path d="M6.17,7.76c-.9-1.04-2.09-1.16-3.44-1.07.84-.6,1.9-.76,2.68-.08.34.33.64.67.75,1.15Z" fill="#010303"/>
      <path d="M17.26,8.36c-1.32-.12-2.87.06-3.7,1.1.3-.92,1.15-1.47,2.09-1.52.57-.03,1.12.12,1.61.42Z" fill="#010202"/>
      <path d="M9.71,20.13c-.69.52-1.73.42-2.34-.24.76.36,1.49.46,2.34.24Z" fill="#081205"/>
      <path d="M9.97,16.9c-.69.42-1.65.35-2.11-.38.29.17.52.35.84.37.41.09.81.05,1.27,0Z" fill="#081005"/>
      <path d="M16.53,15.68c-1.34.54-2.76.29-4.07-.22-.39-.15-.77-.31-1.08-.58-.55-.48.1-1.35.58-1.89,1.21-1.36,2.73-2.04,4.55-1.58,1.12.28,2.15.86,1.87,2.1-.22.96-.91,1.79-1.84,2.16Z" fill="#000201"/>
      <path d="M14.08,13.47c-.29.18-.6.03-.7-.26-.12-.39.05-.81.41-1,.24-.13.52-.02.62.25.14.35,0,.8-.33,1.02Z" fill="#fefdfc"/>
      <path d="M15.31,13.1c0,.19-.12.33-.28.32s-.27-.14-.29-.3c-.01-.12,0-.24.09-.32.08-.07.21-.1.32-.03.09.06.16.17.15.33Z" fill="#fafaf9"/>
      <path d="M7.22,14.09c-1.67.47-3.45.28-4.75-.94-.39-.37-.7-.82-.9-1.32-.18-.45-.06-.91.27-1.24.26-.25.53-.46.88-.57.45-.15.91-.25,1.4-.21,1.98.16,3.48,1.81,3.47,3.8,0,.22-.16.42-.37.48Z" fill="#000201"/>
      <path d="M3.76,11.69c-.18.1-.35.1-.51,0-.13-.07-.22-.23-.22-.41,0-.35.21-.68.53-.81.27-.11.55.04.61.32.08.35-.09.72-.42.9Z" fill="#fdfefc"/>
      <path d="M4.66,11.78c-.18-.01-.25-.19-.26-.3-.02-.15.03-.32.2-.36.21-.05.35.11.37.29s-.08.39-.31.37Z" fill="#fcfcfc"/>
      <path d="M7.98,40.3c-.04.58-.2,1.11-.32,1.67l-.32,1.56c-.22,1.04-.1,2.07.06,3.13l.39,2.75.09,2.01c.02.36.08.66.26.96.15.25.25.52.28.81.07.54-.25.97-.78,1.11-1.1.29-2.15-.06-3.44.32-.41.12-.81.2-1.24.24-.71.05-1.67-.14-1.95-.79-.14-.33.44-.21,1.23-.53l1.49-.61c.66-.27,1.28-.58,1.87-.98.53-.36.5-.57.38-1.19l-.42-2.29c-.09-.5-.12-.99,0-1.49.02-.09.12-.26.02-.34-.2-.16-.37-.35-.42-.63-.12-.45-.06-.9.07-1.34l-.43-2.4c-.17-1.32-.11-2.61.2-3.91.38-1.62.66-3.21.76-4.88.04-.99-.08-1.92-.4-2.87.71-.2,1.38-.48,2.09-.78.67.45,1.34.87,2.07,1.25.55.28,1.09.53,1.67.73l-.44,1.09c-.63,1.58-.85,2.8-.19,4.5l2.18,5.56c.17.44.23.95.52,1.33.93,1.21,1.71,2.45,2.31,3.86.45,1.07.88,2.12,1.23,3.23l.82.8c.56.55,1.52,1.44,1.18,2.12-.31.63-1.84.7-2.66.71-.53,0-1.04-.07-1.51-.28-.65-.29-.09-1.16.42-1.69l.8-.82c.2-.2.12-.58-.04-.79l-.7-.92-1.78-2.28c-.73-.93-1.02-2.06-1.57-2.67-.44-.49-.81-.99-1.16-1.55l-2.16-3.48-.28-.65c-.02-.05-.03-.11-.09-.11s-.15.04-.14.12l.05.42Z" fill="#9ae937"/>
      <path d="M10.39,28.88c.26,0,.49-.03.71.06l.9.34c-.2-.24-.45-.37-.74-.52-.05-.74-.03-1.47.09-2.22.02-.1.09-.18.05-.29-.18.34-.29.7-.33,1.1l-.09.85-.49-.48c-.35-.34-.89-.4-1.35-.24-.24.09-.48.16-.74.17l-1.28.07c-.2-.47-.33-.96-.65-1.37-.43-.55-1.1-.83-1.81-.94.37-.78.81-1.65,1.73-1.43.7.16,1.38.17,2.09,0,.15.3.4.48.7.59.46.17.93.09,1.27-.28.65.22,1.29.29,1.95.39.94.14,1.14,1.56,1.12,2.5l-.04,1.88c-.01.65-.08,1.29-.29,1.89s-.74.87-1.33.73c-1.49-.36-2.79-1.14-4.07-1.99l1.01-.48c.49-.23,1.01-.33,1.58-.32Z" fill="#9ae936"/>
      <path d="M3.9,28.51c-.01.06.02.07.08.07l1.26-.34c1.06-.18,2.1-.26,3.17-.32.27-.01.52-.06.77-.16.74-.29,1.22.19,1.68.81l-1.15.05c-.39.02-.75.18-1.1.34l-2.03.9c-.56.25-1.12.43-1.72.56-.87.19-1.96.09-2.11-.76-.08-.44.03-.86.23-1.25l.68-1.3c.22.14.41.21.68.28-.19.11-.3.25-.35.4-.07.21,0,.38.14.55l-.25.16Z" fill="#9ae836"/>
      <path d="M5.42,27.13c-.53.05-1.65-.1-1.57-.39s1.16-.11,1.71-.06c-.38-.32-.77-.58-1.23-.78-.29-.12.27-.37,1.01,0,.32.16.66.32.88.61.28.37.42.79.59,1.25-.82.08-1.59.18-2.37.41-.08-.01-.14-.11-.14-.16-.05-.27.34-.42.67-.61l.46-.27Z" fill="#9ae936"/>
      <path d="M10.17,24.12c-.4.35-1.12.23-1.36-.25.03-.41.22-.82.21-1.25.53.02,1-.04,1.53-.14-.13.27-.2.52-.25.81l-.13.83Z" fill="#9ae836"/>
      <path d="M4.37,26.29h-.24c0-.07.04-.12.09-.11.05.02.11.03.15.11Z" fill="#7ca74b"/>
      <path d="M3.98,28.58c-.12.03-.2.14-.35.11l.28-.18s.05.07.08.07Z" fill="#223613"/>
    </g>
    <path d="M153.4,24.45c.28-.88.7-1.53,1.26-1.93.56-.4,1.22-.6,1.97-.6h7.57c.76,0,1.41.2,1.97.6.56.4.98,1.04,1.26,1.93l6.54,20.13h-3.24l-2.3-7.09h-13.46l.84-2.91h11.75l-3.07-9.74h-8.16l-6.25,19.74h-3.24l6.54-20.13Z"/>
    <path d="M175.6,28.73h2.98v13.04h13.01v-13.04h2.98v13.5c0,.65-.23,1.2-.68,1.67-.45.46-1.01.7-1.68.7h-14.24c-.67,0-1.23-.23-1.68-.7-.45-.46-.68-1.02-.68-1.67v-13.5Z"/>
    <path d="M201.01,31.54h-4.5v-2.82h4.5v-4.85h2.98v4.85h9.16v2.82h-9.16v10.23h9.32v2.82h-9.94c-.65,0-1.2-.23-1.67-.68-.46-.45-.7-1.01-.7-1.68v-10.68Z"/>
    <path d="M215.9,31.09c0-.67.23-1.23.7-1.68.46-.45,1.02-.68,1.67-.68h14.34c.65,0,1.2.23,1.67.68.46.45.7,1.01.7,1.68v11.13c0,.67-.23,1.23-.7,1.68-.46.45-1.02.68-1.67.68h-14.34c-.65,0-1.2-.23-1.67-.68-.46-.45-.7-1.01-.7-1.68v-11.13ZM231.98,41.77v-10.23h-13.11v10.23h13.11Z"/>
    <path d="M238.2,31.09c0-.67.23-1.23.7-1.68.46-.45,1.02-.68,1.67-.68h14.6c.65,0,1.2.23,1.67.68.46.45.7,1.01.7,1.68v6.12c0,.65-.23,1.2-.68,1.67-.45.46-1.01.7-1.68.7h-13.98v5.02h-2.98v-13.5ZM254.54,36.85v-5.37h-13.37v5.37h13.37Z"/>
    <path d="M260.82,21.93h2.98v22.66h-2.98v-22.66Z"/>
    <path d="M267.68,31.09c0-.67.23-1.23.7-1.68.46-.45,1.02-.68,1.67-.68h14.69c.65,0,1.2.23,1.67.68s.7,1.01.7,1.68v5.05c0,.67-.23,1.23-.7,1.68s-1.02.68-1.67.68h-14.08v3.43h16.15v2.65h-16.77c-.65,0-1.2-.23-1.67-.68-.46-.45-.7-1.01-.7-1.68v-11.13ZM284.12,35.94v-4.63h-13.46v4.63h13.46Z"/>
    <path d="M296.52,36.59l-7.96-7.86h3.95l5.99,5.99,6.02-5.99h3.85l-7.99,7.83,8.16,8.03h-3.95l-6.18-6.15-6.18,6.15h-3.82l8.12-7.99Z"/>
    <g>
      <path d="M22.24,21.4h3.31v10.2h8.14l8.63-10.17h3.76l-9.64,11.31,10.89,11.61h-4.18l-9.47-9.8h-8.14v9.8h-3.31v-22.95Z"/>
      <path d="M48.65,30.68c0-.68.25-1.25.75-1.71s1.1-.69,1.79-.69h15.8c.7,0,1.29.23,1.79.69s.75,1.03.75,1.71v5.12c0,.68-.25,1.25-.75,1.71s-1.1.69-1.79.69h-15.14v3.48h17.36v2.69h-18.03c-.7,0-1.29-.23-1.79-.69s-.75-1.03-.75-1.71v-11.28ZM66.33,35.6v-4.69h-14.48v4.69h14.48Z"/>
      <path d="M73.01,21.4h3.2v22.95h-3.2v-22.95Z"/>
      <path d="M81.08,21.4h3.2v22.95h-3.2v-22.95Z"/>
      <path d="M88.46,30.68c0-.68.25-1.25.75-1.71s1.1-.69,1.79-.69h15.8c.7,0,1.29.23,1.79.69s.75,1.03.75,1.71v5.12c0,.68-.25,1.25-.75,1.71s-1.1.69-1.79.69h-15.14v3.48h17.36v2.69h-18.03c-.7,0-1.29-.23-1.79-.69s-.75-1.03-.75-1.71v-11.28ZM106.14,35.6v-4.69h-14.48v4.69h14.48Z"/>
      <path d="M112.89,41.77h17.5v-3.57h-15.73c-.7,0-1.29-.23-1.79-.69-.5-.46-.75-1.03-.75-1.71v-7.54h3.2v7.35h15.07v-7.35h3.2v13.71c0,.68-.25,1.25-.75,1.71s-1.1.69-1.79.69h-18.16v-2.59Z"/>
    </g>
  </g>
</svg>