<?xml version="1.0" encoding="UTF-8"?>
<svg id="Layer_2" data-name="Layer 2" xmlns="http://www.w3.org/2000/svg" viewBox="0 0 227.7 90.95">
  <g id="Layer_1-2" data-name="Layer 1">
    <g>
      <path d="M148.97,24.9c-.15,2.23-.61,4.66-1.38,7.28-.77,2.62-1.43,3.92-1.98,3.88-.43-.03-.63-.26-.6-.69,0-.13.06-.32.17-.57,1.36-2.93,2.15-6.13,2.38-9.61.36-5.41-.97-9.86-3.97-13.36-3.01-3.5-7.15-5.42-12.44-5.77-7.09-.47-14.55,1.39-22.38,5.57,5.72,4.86,8.38,10.28,7.98,16.25-.63,9.58-7.52,14.83-20.65,15.78,10.44,4.44,15.34,11.65,14.68,21.61-.49,7.39-4.06,13.64-10.72,18.76-6.66,5.12-14.19,7.41-22.61,6.85-4.04-.27-7.18-1.52-9.42-3.76-2.25-2.24-3.25-5.14-3.01-8.71.36-5.5,3.25-10.77,8.65-15.83,5.4-5.05,10.66-7.41,15.77-7.08,2.83.19,5.09,1.23,6.78,3.13,1.69,1.9,2.44,4.25,2.25,7.04-.11,1.67-.76,3.72-1.96,6.15-1.2,2.42-2.12,3.61-2.76,3.57-.47-.03-.7-.22-.67-.56.01-.17.11-.42.31-.76,2.45-3.12,3.76-5.98,3.93-8.6.16-2.45-.5-4.47-1.99-6.08-1.49-1.61-3.51-2.5-6.08-2.67-4.84-.32-9.75,1.92-14.71,6.72-4.97,4.8-7.62,9.87-7.98,15.19-.19,2.83.62,5.26,2.42,7.28,1.8,2.02,4.14,3.12,7.01,3.31,6.56.43,12.78-2.36,18.67-8.37,5.89-6.01,9.08-12.84,9.59-20.49.47-7.13-2.62-12.59-9.27-16.4l-3.77.2c-1.04.06-2.07.06-3.1-.01-3.26-.22-4.86-.86-4.79-1.93.05-.77,1.43-1.07,4.13-.89,1.93.13,4.46.68,7.59,1.67,4.56-1.08,8.25-3.25,11.07-6.51,2.82-3.26,4.39-7.13,4.68-11.59s-1.11-8.29-4.19-11.99c-9.88,6.59-19.54,18.24-28.97,34.96-5.81,10.27-11,17.64-15.57,22.13-4.43,4.32-10.56,8.12-18.41,11.4-9.26,3.79-17.42,5.45-24.46,4.98-5.75-.38-10.45-2.02-14.1-4.91C1.46,78.56-.24,75.14.03,71.19c.14-2.19.92-4.04,2.34-5.54,1.41-1.5,3.02-2.19,4.83-2.07,2.62.17,3.83,1.72,3.64,4.64-.1,1.46-.62,2.68-1.57,3.65-.95.97-2.07,1.42-3.35,1.33-2.23-.15-3.23-1.38-2.99-3.69.1-.94.05-1.42-.16-1.43-.69-.05-1.11,1.07-1.26,3.35-.24,3.56,1.32,6.64,4.66,9.24,3.34,2.59,7.68,4.07,13,4.42,9.4.62,18.16-2.29,26.26-8.74,3.5-2.79,6.59-5.74,9.26-8.86,2.66-3.12,8.82-11.09,18.47-23.91,4.67-6.12,10.21-12.28,16.62-18.5,6.41-6.22,11.72-10.59,15.94-13.11-6.41-6.16-16.05-9.67-28.93-10.52C58.65.22,42.46,5.73,28.2,17.94c-11.7,10.01-17.87,19.76-18.5,29.25-.32,4.81.97,8.73,3.88,11.77,2.9,3.04,7,4.73,12.28,5.08,8.63.57,17.83-2.98,27.58-10.66,9.76-7.68,14.9-15.42,15.41-23.24.41-6.23-2.58-9.55-8.98-9.97s-13.49,2.67-21.28,9.29c-7.79,6.62-11.89,13.06-12.31,19.32-.1,1.54.32,2.91,1.28,4.09.96,1.18,2.12,1.82,3.5,1.91.72.18,1.07.37,1.06.59-.03.39-.45.55-1.26.5-2.06-.14-3.74-1.18-5.03-3.14-1.29-1.96-1.85-4.29-1.67-6.99.44-6.65,4.54-12.9,12.3-18.74s15.51-8.51,23.24-8c7.38.49,10.85,4.15,10.4,10.97-.55,8.33-5.81,16.44-15.78,24.31-9.97,7.88-19.52,11.52-28.67,10.91-5.97-.39-10.63-2.5-13.97-6.33-3.35-3.82-4.82-8.74-4.43-14.75.8-12.15,8.4-22.79,22.78-31.91C44.41,3.09,59.91-.92,76.53.18c12.5.83,22.91,4.34,31.26,10.54,8.18-4.38,15.94-6.32,23.29-5.83,5.75.38,10.27,2.4,13.54,6.07,3.27,3.67,4.72,8.31,4.35,13.94Z" fill="#4c4c4c"/>
      <path d="M142.58,68.66l10.93-18.54-10.93-18.54c-4.32-7.34-8.2-9.35-11.02-9.35v-.32h25.31v.32c-1.94.16-7.5,1.53-7.5,4.84,0,.56.09,2.5,2.47,6.61l9.08,15.48,9.08-15.48c2.38-4.11,2.47-6.05,2.47-6.61,0-3.31-4.45-4.68-6.39-4.84v-.32l18.25-.16v.32c-2.82,0-7.62,2.18-11.94,9.51l-10.93,18.54,10.93,18.54c4.32,7.34,8.2,9.35,11.02,9.35v.32h-22.39v-.32c1.94-.16,4.58-1.53,4.58-4.84,0-.56-.09-2.5-2.47-6.61l-9.08-15.48-9.08,15.48c-2.38,4.11-2.47,6.05-2.47,6.61,0,3.31,2.65,4.68,4.58,4.84v.32h-15.52v-.32c2.82,0,6.7-2.02,11.02-9.35Z" fill="#4c4c4c"/>
      <path d="M168.23,21.91l10.71-.05,10.76-.18v.44c-.97.08-2.14.61-3.07,1.33s-1.64,1.88-1.69,3.78c0,1.65.48,3.67,1.17,5.79.68,2.12,1.56,4.33,2.36,6.39l6.57,16.93,6.57,16.93,6.92-18.18,6.92-18.18c.75-2.02,1.37-3.97,1.8-5.69s.67-3.22.67-4.3c0-2.26-1.06-3.37-2.25-3.92s-2.51-.55-3.04-.59v-.32h15.08v.32c-1.85.36-3.66,1.57-5.32,3.5s-3.19,4.57-4.46,7.79l-8.82,22.41-8.82,22.41h-3.79l-9.35-23.38-9.35-23.38c-1.54-3.91-3.02-6.47-4.9-7.87s-4.14-1.64-4.67-1.64v-.32Z" fill="#4c4c4c"/>
      <path d="M136.49,62.34c.08-.04.26-.02.31-.05.01,0,.05-.09.08-.13,1.42-1.35,2.79-2.88,4.67-3.59.64-.24,2.01-.51,2.63-.21.45.21.21.74-.27.62-.28-.07-.33-.42-.72-.46-1.9-.18-4.34,1.85-5.57,3.17-.08.08-.56.61-.55.67,0,.03.11.1.16.08,1.9-1.17,4.42-2.53,6.72-1.92.31.08,1.1.33.87.77-.09.18-.28.17-.46.11-.28-.09-.29-.51-.65-.65-.88-.33-2.17-.08-3.05.2-1.18.38-2.25,1.01-3.31,1.62.41.66-.03,1.85-.94,1.45.11.5-.23,1.21-.55,1.59-.35.42-.91.69-1.32,1.04-.59.51-.82,1.47-1.15,2.19-.58,1.24-1.57,2.97-2.96,3.41-.91.29-.94-.1-.72-.87l.58-1.43-.77.85c-1.8,1.84-4.28,3.21-6.93,2.68-1.25-.25-1.47-.81-2.33-1.56-.58-.5-1.36-.78-2-1.23-2.46-1.7-4.03-4.8-3.52-7.83.44-2.59,2.91-3.58,5.28-3.73.26-.02.53,0,.79,0,.05,0,.15.03.14-.04-2.32-.48-4.7-1.56-5.1-4.16-.43-2.76.98-5.45.9-8.21-.06-1.78-.59-2.67-1.14-4.25-.32-.91-.39-1.55.58-2.06,1.95-1.01,5.11.46,6.83,1.5,5.22,3.14,8.69,8.68,10.51,14.39.06,0-.1-.54-.11-.6-.35-1.35-.82-2.71-1.29-4.02s-1.17-2.28-.53-3.72c.76-1.7,2.83-2.14,4.15-3.28,1.32-1.14,1.62-2.83,2.52-4.24.85-1.33,2.22-1.32,3.3-.24,3.81,3.82,1.48,12.45-.82,16.61-1.13,2.05-2.6,3.88-4.25,5.52ZM139.74,40.71c-.6.12-.61,1.08.03,1.17.99.13.88-1.35-.03-1.17ZM119.72,41.07c-.37.11-.27.85.29.68.41-.13.23-.84-.29-.68ZM117.71,41.22c-.84.17-.67,1.54.3,1.36.84-.16.6-1.54-.3-1.36ZM121.85,42.05c-.44.05-.39.76.06.74.48-.02.44-.8-.06-.74ZM141.16,42.05c-.39.1-.29.83.22.73s.35-.88-.22-.73ZM119.6,42.52c-.71.12-.62,1.23.14,1.2.85-.04.69-1.34-.14-1.2ZM140.09,43.8c.6-.56-.33-1.47-.87-.85-.5.57.32,1.37.87.85ZM126.61,49.67c-.36-1.49-.84-2.96-1.65-4.27-.4-.64-1.31-1.99-2.14-1.99-.24,0-.45.17-.45.42-.02.73,1.26,2.32,1.73,2.91.81,1,1.69,1.94,2.52,2.93ZM141.35,43.7c-.4.09-.4.79.07.86.7.1.63-1.02-.07-.86ZM138.01,44.06c-.58.1-.49,1.07.22.93.56-.12.38-1.02-.22-.93ZM118.62,44.25c-.5.11-.36,1.02.25.88.54-.12.43-1.04-.25-.88ZM126.97,51.4c-.28-.6-.67-1.17-1.05-1.72-.56-.81-1.18-1.6-1.84-2.33-.58-.65-2.08-2.19-2.89-2.38-1.16-.28-1.17,1.04-.73,1.75.49.78,1.87,1.27,2.66,1.74,1.39.82,2.65,1.85,3.84,2.94ZM139.24,52.35c.18-.24.34-.57.47-.85.7-1.53,1.38-4.05,1.22-5.73-.11-1.18-1.01-1.05-1.42-.13-.28.64-.09,1.06-.03,1.7.09,1.11.11,2.16,0,3.26-.06.59-.18,1.17-.24,1.75ZM140.58,50.7c.41-.61.88-1.17,1.23-1.82.37-.69,1.14-2.54.67-3.24-.33-.5-.66.22-.77.51-.51,1.39-.66,3.01-1.16,4.43l.03.13ZM118.03,45.87c-.73.04-.66,1.22.15,1.09.62-.1.52-1.13-.15-1.09ZM137.75,55.02c.6-1.13,1.08-2.26,1.29-3.53.19-1.14.39-4.36-.23-5.29-.33-.5-.7-.31-.98.11-.72,1.11-.03,2.97.08,4.21.13,1.45.05,2.95-.18,4.38,0,.04-.05.13.02.12ZM126.19,46.07c-.32.3.18.86.52.5.31-.34-.18-.8-.52-.5ZM136.12,46.45c-.49.06-.41.79.06.77.5-.03.44-.83-.06-.77ZM134.01,62.89c-.27-2.71-.79-5.43-1.88-7.93-.91-2.08-2.43-4.96-3.94-6.64-.47-.52-1.64-1.66-1.44-.09.06.53.29,1.19.45,1.71.68,2.22,1.47,4.38,2.6,6.41,1.26,2.27,2.71,4.44,4.22,6.54ZM128.31,55.02c-.73-1.91-1.98-3.62-3.56-4.92-1.02-.84-3.06-2.3-4.35-2.53-.92-.16-.64.79-.42,1.32.4.95,1.29,1.48,2.14,1.99,1.65.98,3.28,1.68,4.79,2.92.48.39.9.85,1.4,1.22ZM136.21,58.17c1.04-2.41,1.69-5.08,1.33-7.72-.07-.53-.35-1.89-.78-2.21-.36-.27-.76.2-.91.51-.75,1.48-.01,2.84.2,4.34.23,1.61.23,3.21.12,4.83,0,.05-.03.25.04.26ZM132.94,48.7c-.68.14-.36,1.32.38.97.55-.26.3-1.11-.38-.97ZM134.66,48.71c-.54,0-.47.77,0,.77s.5-.77,0-.77ZM118.61,49.06c-.59,0-.59.9,0,.9s.6-.9,0-.9ZM135.23,62.26c1.77-1.27,3.12-3.01,4.26-4.84,1.03-1.64,2.1-3.69,2.41-5.61.06-.39.3-2.03-.48-1.38s-1.67,2.22-2.21,3.14c-.65,1.09-1.34,2.25-1.86,3.41-.79,1.73-1.44,3.52-2.12,5.3ZM134.95,61.47c.94-2.86,1.27-5.93.66-8.9-.13-.64-.64-2.93-1.68-1.98-1.22,1.11-.04,3.6.3,4.93.52,1.99.6,3.77.68,5.81,0,.05-.03.15.04.14ZM117.91,50.83c-.7.03-.77,1.05-.11,1.19.89.19.97-1.22.11-1.19ZM130.35,58.4c-.51-.85-1.09-1.74-1.75-2.48-1.36-1.52-4.67-3.81-6.54-4.64-.73-.33-1.83-.79-1.94.41s1.1,2.25,2.06,2.66c1.52.65,3.11,1.17,4.55,2.02l3.62,2.03ZM117.71,53.66c-.32-.34-.86.13-.56.5s.89-.14.56-.5ZM132.63,61.91c-.6-.73-1.15-1.51-1.79-2.2-1.9-2.07-5.95-4.21-8.74-4.6-.64-.09-1.52-.2-1.72.63-.38,1.59,1.83,2.34,2.94,2.75,1.55.56,3.13,1.04,4.67,1.62,1.42.53,2.85,1.22,4.27,1.71.12.04.23.1.36.09ZM118.22,55.74c-.61.02-.59,1.06.18.88.43-.1.38-.9-.18-.88ZM131.61,63.09c-.19-.19-.45-.34-.67-.49-1.41-.92-3.2-2.05-4.85-2.43-.33-.08-1.23-.27-1.48-.02-.3.31.34.61.55.71,1.25.58,2.94,1.16,4.27,1.6.72.24,1.45.47,2.18.63ZM127.6,62.42c-.32-.24-.76-.41-1.14-.57-1.55-.64-4.15-1.61-5.8-1.51-.58.03-1.65.26-2.06.69-.49.52-.09.69.45.76.71.09,1.52.06,2.24.12,2.11.16,4.21.38,6.31.51ZM116.87,61.09c-.46.46.32,1.13.69.6.33-.47-.32-.98-.69-.6ZM122.72,62.65s-.84-.17-.97-.19c-.69-.1-1.54-.18-2.23-.2-.82-.03-2.18-.04-1.99,1.16.07.46,1.01.44,1.35.41.9-.08,2.98-.67,3.78-1.09.03-.02.13-.02.06-.08ZM133.07,64.23c.02-.08-.04-.09-.09-.13-.52-.35-2.43-.87-3.1-1.03-2.31-.52-6.53-.74-8.56.63-.45.31-.19.4.2.57,2.1.9,4.86.66,7.09.46,1.49-.13,2.98-.32,4.46-.51ZM115.9,63.61c-.84.17-.67,1.54.3,1.36.84-.16.6-1.54-.3-1.36ZM122.8,65.09c-.6-.2-1.22-.36-1.85-.49-.74-.15-2.3-.49-2.96-.17-.46.23-.52.82-.19,1.19.4.44.9.32,1.43.24,1.06-.16,2.12-.43,3.17-.64l.4-.13ZM130.59,65.25c-.45.06-.9.03-1.35.08-1.84.2-6.45,2.01-7.54,3.52-.24.33-.3.59.12.79.9.43,2.11-.33,2.88-.78,1.04-.6,2.02-1.29,3.04-1.91.78-.47,1.61-.88,2.38-1.35.16-.1.36-.2.46-.35ZM123.79,70.63c.24.24,1.01.02,1.3-.08,1.98-.71,4.41-2.74,5.79-4.32l.77-.98c-1.79.95-3.59,1.89-5.31,2.97-.59.37-1.25.79-1.79,1.24-.21.17-1.06.87-.76,1.17ZM126.65,65.45c-1.82,0-3.65.09-5.43.49-.62.14-2.14.52-2.43,1.11-.2.4.12.83.48,1,1.63.8,4.63-1.46,6.15-2.05l1.23-.56ZM132.24,65.49c-1.14,1.15-2.32,2.26-3.56,3.3-.35.29-1.67,1.23-1.81,1.53-.24.52.37.68.78.63.52-.07,1.73-1.14,2.11-1.55,1.05-1.12,1.87-2.52,2.48-3.91ZM116.4,66.52c-.28.28.13.75.46.48.36-.29-.16-.79-.46-.48ZM118.93,68.8c-.74.03-.69,1.15.03,1.13.77-.02.71-1.16-.03-1.13ZM122.28,71.22c.29-.29-.13-.75-.46-.48-.36.29.15.79.46.48ZM125.46,71.48c-.43-.45-1.15.24-.66.68.44.39,1.07-.24.66-.68Z" fill="#d85ba9"/>
    </g>
  </g>
</svg>