<?xml version="1.0" encoding="UTF-8"?>
<svg id="Layer_2" data-name="Layer 2" xmlns="http://www.w3.org/2000/svg" viewBox="0 0 340.7 103.75">
  <g id="Layer_1-2" data-name="Layer 1">
    <g>
      <path d="M158.32,26.46c-.16,2.37-.64,4.95-1.46,7.74-.82,2.79-1.52,4.16-2.11,4.12-.46-.03-.67-.27-.64-.73,0-.14.07-.34.18-.61,1.44-3.11,2.29-6.52,2.53-10.21.38-5.75-1.03-10.48-4.22-14.2-3.19-3.72-7.6-5.76-13.22-6.13-7.54-.5-15.47,1.48-23.79,5.92,6.07,5.17,8.9,10.93,8.48,17.27-.67,10.18-7.99,15.77-21.94,16.77,11.1,4.72,16.3,12.38,15.6,22.96-.52,7.85-4.32,14.5-11.39,19.94-7.08,5.44-15.09,7.87-24.03,7.28-4.29-.28-7.63-1.62-10.01-4s-3.45-5.46-3.2-9.25c.39-5.84,3.45-11.45,9.19-16.82,5.74-5.37,11.33-7.88,16.76-7.52,3.01.2,5.41,1.31,7.21,3.33,1.79,2.02,2.59,4.51,2.39,7.48-.12,1.78-.81,3.96-2.08,6.53-1.27,2.57-2.25,3.84-2.93,3.79-.5-.03-.74-.23-.72-.6.01-.18.12-.45.33-.8,2.6-3.31,4-6.36,4.18-9.14.17-2.6-.53-4.76-2.11-6.46-1.58-1.71-3.73-2.65-6.47-2.83-5.15-.34-10.36,2.04-15.64,7.15-5.28,5.11-8.1,10.49-8.48,16.15-.2,3.01.66,5.59,2.58,7.73,1.92,2.14,4.4,3.32,7.45,3.52,6.97.46,13.58-2.5,19.84-8.9,6.26-6.39,9.65-13.65,10.19-21.77.5-7.57-2.78-13.38-9.85-17.43l-4,.22c-1.1.06-2.2.06-3.3-.01-3.47-.23-5.16-.91-5.09-2.06.05-.82,1.52-1.14,4.39-.95,2.05.14,4.74.73,8.06,1.77,4.84-1.15,8.76-3.45,11.77-6.92,3-3.47,4.66-7.57,4.97-12.32s-1.18-8.81-4.45-12.74c-10.5,7.01-20.76,19.39-30.78,37.15-6.18,10.91-11.69,18.75-16.54,23.52-4.7,4.59-11.23,8.63-19.57,12.11-9.85,4.02-18.51,5.79-26,5.29-6.12-.4-11.11-2.14-14.99-5.22C1.55,83.5-.25,79.86.03,75.66c.15-2.33.98-4.29,2.49-5.89,1.5-1.6,3.21-2.33,5.13-2.2,2.78.18,4.07,1.83,3.87,4.93-.1,1.55-.66,2.84-1.67,3.88-1.01,1.03-2.2,1.5-3.57,1.41-2.37-.16-3.43-1.46-3.18-3.92.11-1,.05-1.51-.17-1.52-.73-.05-1.18,1.14-1.34,3.56-.25,3.79,1.4,7.06,4.95,9.82,3.55,2.76,8.16,4.32,13.82,4.7,9.99.66,19.3-2.44,27.91-9.29,3.72-2.96,7-6.1,9.84-9.42s9.37-11.79,19.63-25.41c4.97-6.5,10.86-13.05,17.66-19.66,6.81-6.61,12.46-11.25,16.94-13.94-6.81-6.55-17.06-10.27-30.75-11.18C62.33.24,45.13,6.09,29.97,19.07c-12.44,10.64-18.99,21-19.66,31.08-.34,5.11,1.04,9.28,4.12,12.51s7.44,5.03,13.05,5.4c9.17.61,18.94-3.17,29.32-11.33,10.37-8.16,15.83-16.39,16.38-24.7.44-6.62-2.74-10.15-9.54-10.6s-14.34,2.84-22.62,9.87c-8.28,7.03-12.64,13.88-13.08,20.53-.11,1.64.35,3.09,1.36,4.35,1.02,1.26,2.25,1.93,3.72,2.03.77.19,1.14.4,1.13.62-.03.41-.47.59-1.34.53-2.19-.14-3.97-1.26-5.35-3.34-1.37-2.08-1.97-4.56-1.78-7.43.47-7.07,4.83-13.71,13.07-19.92,8.25-6.21,16.48-9.04,24.69-8.5,7.85.52,11.53,4.41,11.05,11.66-.59,8.85-6.17,17.47-16.77,25.84-10.59,8.37-20.75,12.24-30.47,11.6-6.34-.42-11.29-2.66-14.85-6.72-3.56-4.06-5.13-9.29-4.7-15.68.85-12.91,8.92-24.22,24.21-33.91C47.2,3.28,63.68-.98,81.34.19c13.28.88,24.35,4.61,33.22,11.2,8.7-4.65,16.95-6.72,24.75-6.2,6.11.4,10.91,2.56,14.39,6.45,3.48,3.9,5.02,8.83,4.62,14.81Z" fill="#4c4c4c"/>
      <g>
        <path d="M250.23,72.97l11.62-19.71-11.62-19.71c-4.59-7.8-8.71-9.94-11.71-9.94v-.34h26.9v.34c-2.06.17-7.97,1.63-7.97,5.14,0,.6.09,2.66,2.62,7.03l9.65,16.45,9.65-16.45c2.53-4.37,2.62-6.43,2.62-7.03,0-3.51-4.73-4.97-6.79-5.14v-.34l19.39-.17v.34c-3,0-8.1,2.31-12.69,10.11l-11.62,19.71,11.62,19.71c4.59,7.8,8.71,9.94,11.71,9.94v.34h-23.8v-.34c2.06-.17,4.87-1.63,4.87-5.14,0-.6-.09-2.66-2.62-7.03l-9.65-16.45-9.65,16.45c-2.53,4.37-2.62,6.43-2.62,7.03,0,3.51,2.81,4.97,4.87,5.14v.34h-16.49v-.34c3,0,7.12-2.14,11.71-9.94Z" fill="#d85ba9"/>
        <path d="M277.5,23.29l11.38-.05,11.44-.19v.47c-1.03.09-2.27.65-3.27,1.41s-1.75,2-1.79,4.02c0,1.76.52,3.9,1.24,6.15s1.66,4.61,2.51,6.79l6.98,18,6.98,18,7.36-19.32,7.36-19.32c.8-2.14,1.45-4.22,1.91-6.05s.71-3.42.71-4.57c0-2.4-1.12-3.58-2.39-4.17s-2.67-.59-3.23-.63v-.34h16.02v.34c-1.97.39-3.89,1.67-5.66,3.72s-3.39,4.85-4.74,8.28l-9.37,23.82-9.37,23.82h-4.03l-9.93-24.85-9.93-24.85c-1.64-4.16-3.21-6.88-5.21-8.37s-4.4-1.74-4.96-1.74v-.34Z" fill="#d85ba9"/>
      </g>
      <path d="M219.4,41.31c.06-.03.2-.02.24-.04.01,0,.04-.07.07-.1,1.12-1.06,2.19-2.27,3.68-2.83.51-.19,1.58-.4,2.07-.17.35.17.17.59-.21.49-.22-.06-.26-.33-.57-.36-1.5-.14-3.42,1.46-4.38,2.49-.06.07-.44.48-.43.52,0,.03.09.08.12.06,1.5-.92,3.48-1.99,5.29-1.51.24.06.86.26.68.61-.07.14-.22.13-.36.09-.22-.07-.22-.4-.51-.51-.69-.26-1.71-.06-2.4.16-.93.3-1.77.8-2.61,1.28.33.52-.02,1.46-.74,1.15.09.39-.18.95-.43,1.25-.28.33-.71.54-1.04.82-.47.4-.64,1.16-.91,1.72-.46.98-1.24,2.34-2.33,2.69-.72.23-.74-.08-.56-.69l.46-1.12-.6.67c-1.41,1.45-3.37,2.53-5.46,2.11-.99-.2-1.16-.64-1.84-1.23-.45-.39-1.07-.62-1.57-.96-1.94-1.34-3.18-3.78-2.77-6.16.35-2.04,2.29-2.82,4.16-2.94.2-.01.41,0,.62,0,.04,0,.12.02.11-.03-1.82-.38-3.7-1.23-4.02-3.28-.34-2.17.77-4.29.71-6.47-.04-1.41-.47-2.1-.9-3.34-.25-.71-.31-1.22.46-1.62,1.53-.8,4.02.36,5.38,1.18,4.11,2.47,6.84,6.84,8.27,11.33.05,0-.07-.43-.09-.47-.28-1.06-.65-2.13-1.01-3.17s-.92-1.8-.42-2.93c.6-1.34,2.23-1.68,3.27-2.58s1.28-2.23,1.99-3.34c.67-1.05,1.75-1.04,2.6-.19,3,3.01,1.16,9.8-.65,13.08-.89,1.61-2.05,3.05-3.35,4.35ZM221.96,24.28c-.47.1-.48.85.03.92.78.1.69-1.06-.03-.92ZM206.2,24.56c-.29.09-.21.67.23.54.32-.1.18-.66-.23-.54ZM204.62,24.68c-.66.13-.53,1.21.23,1.07.66-.12.48-1.21-.23-1.07ZM207.87,25.33c-.35.04-.31.6.05.58.38-.02.34-.63-.05-.58ZM223.08,25.33c-.3.08-.23.65.17.57s.28-.69-.17-.57ZM206.11,25.7c-.56.1-.49.97.11.94.67-.03.54-1.06-.11-.94ZM222.24,26.71c.47-.44-.26-1.15-.68-.67-.39.45.25,1.08.68.67ZM211.63,31.33c-.29-1.17-.66-2.33-1.3-3.36-.31-.5-1.03-1.57-1.69-1.57-.19,0-.35.13-.36.33-.02.57.99,1.83,1.36,2.29.64.79,1.33,1.53,1.98,2.31ZM223.23,26.63c-.31.07-.32.62.06.67.55.08.5-.8-.06-.67ZM220.6,26.91c-.46.08-.39.84.17.73.44-.09.3-.81-.17-.73ZM205.33,27.07c-.39.09-.28.8.2.69.43-.1.34-.82-.2-.69ZM211.91,32.7c-.22-.48-.53-.92-.83-1.35-.44-.64-.93-1.26-1.45-1.84-.46-.51-1.64-1.72-2.27-1.88-.91-.22-.92.82-.57,1.38.38.61,1.47,1,2.1,1.37,1.1.65,2.09,1.46,3.03,2.32ZM221.57,33.44c.14-.19.26-.45.37-.67.55-1.2,1.08-3.19.96-4.51-.09-.93-.79-.83-1.12-.1-.22.5-.07.84-.03,1.34.07.87.08,1.7,0,2.57-.04.46-.14.92-.19,1.38ZM222.62,32.14c.32-.48.69-.92.97-1.43.29-.55.89-2,.53-2.55-.26-.4-.52.18-.6.4-.4,1.1-.52,2.37-.91,3.48l.02.1ZM204.87,28.34c-.57.03-.52.96.11.86.49-.08.41-.89-.11-.86ZM220.39,35.55c.47-.89.85-1.78,1.01-2.78.15-.9.31-3.43-.18-4.17-.26-.39-.55-.25-.77.09-.57.87-.02,2.34.06,3.31.1,1.14.04,2.32-.14,3.45,0,.03-.04.1.02.09ZM211.3,28.49c-.26.23.14.68.41.39.24-.27-.14-.63-.41-.39ZM219.11,28.8c-.39.05-.32.62.05.6.4-.02.34-.65-.05-.6ZM217.45,41.74c-.21-2.13-.62-4.28-1.48-6.25-.72-1.64-1.91-3.91-3.1-5.23-.37-.41-1.29-1.31-1.14-.07.05.42.23.94.35,1.35.53,1.75,1.16,3.45,2.05,5.05.99,1.78,2.13,3.49,3.32,5.15ZM212.96,35.55c-.58-1.5-1.56-2.85-2.8-3.87-.81-.66-2.41-1.81-3.43-1.99-.73-.13-.5.62-.33,1.04.31.75,1.02,1.17,1.69,1.57,1.3.77,2.58,1.33,3.77,2.3.38.31.71.67,1.1.96ZM219.18,38.02c.82-1.9,1.33-4,1.05-6.08-.06-.42-.27-1.49-.61-1.74-.29-.21-.6.16-.72.4-.59,1.17-.01,2.24.16,3.42.18,1.27.18,2.53.1,3.8,0,.04-.02.19.03.2ZM216.6,30.57c-.54.11-.28,1.04.3.76.43-.2.23-.87-.3-.76ZM217.96,30.58c-.43,0-.37.61,0,.61s.39-.6,0-.61ZM205.33,30.85c-.47,0-.47.71,0,.71s.47-.71,0-.71ZM218.41,41.24c1.39-1,2.46-2.37,3.36-3.81.81-1.29,1.65-2.9,1.9-4.42.05-.3.24-1.6-.38-1.09s-1.31,1.75-1.74,2.47c-.51.86-1.05,1.77-1.47,2.68-.62,1.36-1.14,2.77-1.67,4.17ZM218.19,40.62c.74-2.25,1-4.67.52-7-.1-.51-.5-2.31-1.32-1.56-.96.87-.03,2.84.24,3.88.41,1.56.47,2.97.54,4.57,0,.04-.02.12.03.11ZM204.77,32.24c-.55.02-.61.82-.08.94.7.15.77-.96.08-.94ZM214.57,38.21c-.4-.67-.86-1.37-1.38-1.95-1.07-1.19-3.67-3-5.15-3.65-.58-.26-1.44-.62-1.53.32s.86,1.77,1.62,2.1c1.2.51,2.45.92,3.58,1.59l2.85,1.6ZM204.62,34.47c-.25-.27-.68.1-.44.39s.7-.11.44-.39ZM216.37,40.97c-.47-.57-.91-1.19-1.41-1.73-1.5-1.63-4.69-3.31-6.88-3.62-.51-.07-1.19-.16-1.35.5-.3,1.25,1.44,1.84,2.32,2.16,1.22.44,2.46.82,3.68,1.28,1.12.42,2.24.96,3.36,1.35.09.03.18.08.29.07ZM205.02,36.11c-.48.01-.47.83.14.69.34-.08.3-.71-.14-.69ZM215.56,41.89c-.15-.15-.35-.27-.53-.38-1.11-.72-2.52-1.61-3.82-1.91-.26-.06-.97-.21-1.17-.01-.24.24.27.48.44.56.98.45,2.32.91,3.36,1.26.56.19,1.14.37,1.72.49ZM212.4,41.37c-.25-.19-.6-.33-.9-.45-1.22-.5-3.27-1.27-4.57-1.19-.46.03-1.3.2-1.62.55-.39.41-.07.54.35.6.56.07,1.19.05,1.76.09,1.66.12,3.31.3,4.97.4ZM203.96,40.33c-.36.36.25.89.55.47.26-.37-.25-.77-.55-.47ZM208.56,41.55s-.66-.14-.76-.15c-.54-.08-1.21-.14-1.76-.16-.64-.02-1.71-.03-1.56.91.06.36.8.35,1.06.32.71-.06,2.34-.53,2.98-.86.02-.01.1-.01.04-.06ZM216.71,42.79c.01-.06-.03-.07-.07-.1-.41-.28-1.91-.69-2.44-.81-1.82-.41-5.14-.58-6.74.5-.36.24-.15.32.16.45,1.66.71,3.82.52,5.58.37,1.17-.1,2.35-.25,3.52-.4ZM203.2,42.3c-.66.13-.53,1.21.23,1.07.66-.12.48-1.21-.23-1.07ZM208.62,43.47c-.47-.15-.96-.29-1.45-.39-.58-.12-1.81-.38-2.33-.13-.37.18-.41.65-.15.94.31.35.71.25,1.12.19.84-.12,1.67-.34,2.5-.51l.32-.1ZM214.76,43.6c-.35.05-.71.03-1.06.07-1.45.16-5.08,1.58-5.93,2.77-.19.26-.24.46.09.62.71.34,1.66-.26,2.27-.61.82-.47,1.59-1.02,2.4-1.51.61-.37,1.27-.69,1.88-1.06.12-.08.28-.16.36-.27ZM209.41,47.83c.19.19.8.02,1.02-.06,1.56-.56,3.47-2.16,4.56-3.4l.6-.77c-1.41.75-2.83,1.49-4.18,2.34-.47.29-.99.62-1.41.97-.16.13-.83.68-.6.92ZM211.66,43.75c-1.43,0-2.87.07-4.27.39-.48.11-1.69.41-1.91.87-.15.32.09.65.38.79,1.28.63,3.65-1.15,4.84-1.61l.97-.44ZM216.06,43.78c-.9.91-1.82,1.78-2.8,2.6-.28.23-1.31.97-1.42,1.21-.19.41.29.54.62.49.41-.06,1.36-.9,1.66-1.22.82-.88,1.47-1.98,1.95-3.08ZM203.58,44.6c-.22.22.11.59.37.38.29-.23-.12-.62-.37-.38ZM205.58,46.4c-.58.02-.54.9.03.89.61-.01.56-.91-.03-.89ZM208.21,48.3c.22-.22-.1-.59-.37-.38-.28.23.12.63.37.38ZM210.72,48.5c-.34-.35-.9.19-.52.53.35.31.84-.19.52-.53Z" fill="#d85ba9"/>
      <g>
        <path d="M116.33,100.34c-.16.02-.32.02-.5.02-1.08,0-1.97-.32-2.65-.97-.69-.65-1.03-1.5-1.03-2.57s.35-1.87,1.04-2.5c.69-.63,1.56-.95,2.61-.95.64,0,1.27.14,1.87.42s1.05.69,1.36,1.24c.31.55.46,1.16.46,1.82,0,.78-.2,1.46-.6,2.06s-.99,1.01-1.75,1.25l-1.49.82c.1,0,.19-.02.27-.02.74,0,1.58.17,2.54.5.74.26,1.32.38,1.75.38.6,0,.95-.23,1.06-.68h.21c-.06.46-.25.83-.57,1.11-.33.29-.74.43-1.26.43-.34,0-.65-.05-.92-.16-.28-.11-.64-.31-1.08-.59-.8-.51-1.46-.76-1.99-.76-.32,0-.63.13-.92.38-.2.17-.34.25-.41.25-.12,0-.18-.05-.18-.16,0-.08.07-.17.21-.26s.41-.23.81-.42c.08-.04.17-.08.25-.13l.92-.53ZM113.28,96.86c0,1.08.22,1.9.65,2.44s1.08.82,1.95.82c.76,0,1.36-.27,1.8-.82.44-.54.66-1.35.66-2.43s-.22-1.85-.65-2.41c-.43-.56-1.06-.84-1.89-.84s-1.44.27-1.87.82-.65,1.35-.65,2.42Z" fill="#4c4c4c"/>
        <path d="M126.02,93.5h2.25v.23c-.3.02-.52.09-.67.2s-.24.24-.27.39-.05.42-.05.83v2.24c0,.57-.02,1-.07,1.28-.04.28-.17.55-.39.82s-.51.48-.9.64c-.39.16-.84.24-1.34.24-.6,0-1.11-.1-1.52-.31-.42-.2-.71-.47-.89-.79s-.27-.76-.27-1.3v-.69s0-2.1,0-2.1c0-.54-.02-.88-.05-1.04-.03-.16-.1-.26-.2-.32s-.32-.09-.66-.09h-.15v-.23h3.08v.23h-.13c-.33,0-.55.03-.65.08-.1.06-.17.16-.21.31-.03.15-.05.5-.05,1.06v2.12c0,.74.03,1.26.1,1.57.07.31.26.58.57.81.31.23.73.35,1.26.35.41,0,.79-.08,1.12-.23.34-.15.59-.35.75-.58s.26-.47.3-.71.05-.63.05-1.15v-2.3c0-.38-.02-.65-.06-.8s-.14-.27-.28-.36c-.14-.09-.37-.14-.68-.16v-.23Z" fill="#4c4c4c"/>
        <path d="M129.78,93.72v-.23h3.08v.23h-.14c-.33,0-.55.03-.65.08-.1.06-.17.16-.21.31-.03.15-.05.5-.05,1.06v3.31c0,.53.01.88.04,1.04.02.16.09.29.2.37s.31.12.62.12h.2v.23h-3.08v-.23h.2c.29,0,.49-.04.6-.11.11-.07.18-.19.21-.34.03-.15.04-.51.04-1.08v-3.31c0-.54-.01-.88-.04-1.04-.03-.16-.1-.26-.2-.32-.1-.06-.33-.09-.67-.09h-.14Z" fill="#4c4c4c"/>
        <path d="M140.41,100.39l-4.77-6.32v4.68c0,.39.02.64.06.77s.15.24.33.34c.18.1.45.15.81.15v.23h-2.52v-.23c.32-.02.57-.08.74-.18.17-.09.27-.2.3-.31.03-.11.05-.37.05-.78v-3.58c0-.52-.02-.86-.07-1.04-.05-.18-.12-.29-.23-.34s-.34-.07-.7-.07v-.23h1.99l3.99,5.28v-4.03c0-.3-.03-.51-.09-.63-.06-.12-.19-.21-.38-.28-.19-.07-.42-.1-.68-.1v-.23h2.45v.23c-.29.02-.51.08-.67.16-.16.09-.27.19-.31.31s-.07.33-.07.61v5.58h-.21Z" fill="#4c4c4c"/>
        <path d="M149.23,97.71h.21v2.36h-.21c-.06-.27-.17-.51-.32-.71-.59.67-1.35,1-2.27,1-.97,0-1.77-.31-2.39-.93s-.93-1.43-.93-2.45c0-.67.14-1.29.43-1.88s.68-1.03,1.19-1.31c.51-.29,1.07-.43,1.68-.43.5,0,.96.1,1.37.31.41.21.72.44.92.69.14-.28.23-.57.26-.88h.22l.06,2.56h-.21c-.15-.91-.45-1.54-.91-1.89-.46-.35-.98-.53-1.55-.53-.71,0-1.27.29-1.68.86s-.62,1.39-.62,2.46c0,1.01.23,1.79.68,2.33s1.02.81,1.7.81c.36,0,.73-.09,1.11-.26s.68-.47.9-.89.35-.82.39-1.22Z" fill="#4c4c4c"/>
        <path d="M156.95,98.14h.24l-.14,2.1h-5.58v-.23h.14c.33,0,.55-.04.65-.13.1-.09.16-.2.19-.34.03-.14.04-.49.04-1.05v-3.31c0-.51-.01-.85-.04-1.01s-.09-.28-.19-.34-.31-.1-.64-.1v-.23h4.82l.16,1.68h-.23c-.11-.47-.24-.81-.39-1-.15-.2-.34-.32-.55-.37-.21-.05-.55-.08-1.02-.08h-.94v2.83h.72c.33,0,.56-.03.69-.08.13-.06.22-.14.26-.26s.06-.34.06-.67h.23v2.31h-.23c0-.37-.03-.63-.09-.75-.06-.13-.16-.21-.28-.25s-.33-.06-.61-.06h-.74v1.6c0,.8.05,1.27.15,1.41.1.14.38.21.83.21h.5c.35,0,.65-.05.88-.14.23-.09.45-.28.65-.56.21-.28.37-.67.49-1.17Z" fill="#4c4c4c"/>
        <path d="M162.92,97.75h-2.56l-.17.43c-.26.62-.39,1.02-.39,1.21,0,.2.07.36.21.46s.31.16.53.16v.23h-2v-.23c.3-.05.52-.15.67-.32s.32-.51.53-1.04c.02-.05.1-.24.24-.58l1.96-4.68h.19l2.25,5.36.31.71c.07.16.16.28.28.38.12.09.29.15.53.17v.23h-2.65v-.23c.32,0,.54-.02.66-.07.11-.05.17-.14.17-.29,0-.07-.08-.29-.23-.65l-.52-1.25ZM162.83,97.53l-1.19-2.87-1.19,2.87h2.38Z" fill="#4c4c4c"/>
        <path d="M172.71,100.39l-4.77-6.32v4.68c0,.39.02.64.06.77s.15.24.33.34c.18.1.45.15.81.15v.23h-2.52v-.23c.32-.02.57-.08.74-.18.17-.09.27-.2.3-.31.03-.11.05-.37.05-.78v-3.58c0-.52-.02-.86-.07-1.04-.05-.18-.12-.29-.23-.34s-.34-.07-.7-.07v-.23h1.99l3.99,5.28v-4.03c0-.3-.03-.51-.09-.63-.06-.12-.19-.21-.38-.28-.19-.07-.42-.1-.68-.1v-.23h2.45v.23c-.29.02-.51.08-.67.16-.16.09-.27.19-.31.31s-.07.33-.07.61v5.58h-.21ZM169.09,93.09h-.15c0-.39.09-.68.28-.88.19-.19.41-.29.67-.29.23,0,.49.12.8.35.31.23.52.35.66.35.32,0,.49-.23.5-.7h.15c0,.42-.1.72-.29.9-.19.18-.41.27-.66.27-.16,0-.31-.03-.44-.09-.13-.06-.3-.18-.51-.34-.22-.17-.39-.26-.5-.26-.3,0-.46.23-.5.69Z" fill="#4c4c4c"/>
        <path d="M180.91,98.14h.24l-.14,2.1h-5.58v-.23h.14c.33,0,.55-.04.65-.13.1-.09.16-.2.19-.34.03-.14.04-.49.04-1.05v-3.31c0-.51-.01-.85-.04-1.01s-.09-.28-.19-.34-.31-.1-.64-.1v-.23h4.82l.16,1.68h-.23c-.11-.47-.24-.81-.39-1-.15-.2-.34-.32-.55-.37-.21-.05-.55-.08-1.02-.08h-.94v2.83h.72c.33,0,.56-.03.69-.08.13-.06.22-.14.26-.26s.06-.34.06-.67h.23v2.31h-.23c0-.37-.03-.63-.09-.75-.06-.13-.16-.21-.28-.25s-.33-.06-.61-.06h-.74v1.6c0,.8.05,1.27.15,1.41.1.14.38.21.83.21h.5c.35,0,.65-.05.88-.14.23-.09.45-.28.65-.56.21-.28.37-.67.49-1.17Z" fill="#4c4c4c"/>
        <path d="M189.88,100.24h-1.82c-.32-.23-.81-.82-1.48-1.77-.21-.31-.43-.6-.66-.88-.23-.28-.39-.45-.47-.51-.09-.06-.22-.09-.4-.09h-.27v1.5c0,.53.01.88.04,1.04.02.16.09.29.2.37.11.08.31.12.62.12h.32v.23h-3.23v-.23h.22c.29,0,.49-.04.6-.11.11-.07.18-.19.21-.34.03-.15.04-.51.04-1.08v-3.31c0-.54-.02-.88-.04-1.04s-.1-.26-.2-.32c-.1-.06-.33-.09-.67-.09h-.11v-.23l.96-.05c.64-.03,1.15-.04,1.53-.04.64,0,1.17.06,1.57.18.4.12.73.31.98.59s.37.6.37.97c0,.44-.16.82-.49,1.13-.33.31-.8.51-1.43.58.28.14.74.63,1.36,1.47.51.69.91,1.14,1.2,1.35.29.21.64.32,1.03.34v.23ZM184.79,96.76c.25,0,.51-.02.77-.03.27-.01.5-.05.69-.11.2-.06.35-.15.48-.26.12-.11.22-.26.29-.45.07-.19.1-.41.1-.69,0-.47-.12-.85-.36-1.14-.24-.29-.75-.43-1.55-.43-.12,0-.26,0-.42.02v3.08Z" fill="#4c4c4c"/>
        <path d="M195.32,97.75h-2.56l-.17.43c-.26.62-.39,1.02-.39,1.21,0,.2.07.36.21.46s.31.16.53.16v.23h-2v-.23c.3-.05.52-.15.67-.32s.32-.51.53-1.04c.02-.05.1-.24.24-.58l1.96-4.68h.19l2.25,5.36.31.71c.07.16.16.28.28.38.12.09.29.15.53.17v.23h-2.65v-.23c.32,0,.54-.02.66-.07.11-.05.17-.14.17-.29,0-.07-.08-.29-.23-.65l-.52-1.25ZM195.23,97.53l-1.19-2.87-1.19,2.87h2.38Z" fill="#4c4c4c"/>
        <path d="M206.79,96.17h2.13v.23c-.27.07-.5.2-.71.39-.2.18-.4.53-.62,1.05-.18.43-.34.74-.49.94.35.51.63.83.84.96.21.14.42.2.65.2.31,0,.55-.15.72-.44h.23c-.07.27-.22.49-.45.66-.23.17-.49.25-.79.25-.65,0-1.22-.32-1.71-.97-.58.65-1.2.97-1.85.97-.24,0-.47-.04-.7-.13-.23-.09-.43-.22-.61-.38-.18-.16-.32-.36-.43-.59s-.16-.48-.15-.75c0-.41.11-.76.34-1.05.23-.28.66-.64,1.31-1.07-.39-.54-.58-1.03-.58-1.47,0-.34.13-.65.4-.92.26-.27.6-.41,1-.41.36,0,.68.1.97.3.29.21.43.47.43.8,0,.51-.48,1.01-1.43,1.49.3.4.59.79.86,1.18.28.38.55.76.81,1.14.19-.26.34-.54.45-.82.11-.28.16-.5.16-.67,0-.38-.26-.6-.78-.66v-.23ZM204.65,96.64c-.35.22-.61.46-.8.75-.19.29-.28.56-.28.82,0,.41.16.8.49,1.16.33.36.7.54,1.11.54.46,0,.88-.23,1.28-.68-.35-.53-.68-1.02-.98-1.44-.3-.43-.57-.81-.83-1.14ZM205.14,96.04c.66-.39.99-.81.99-1.26,0-.13-.02-.25-.06-.37-.04-.11-.09-.21-.16-.29s-.16-.14-.26-.18c-.1-.04-.21-.06-.33-.06-.24,0-.43.08-.58.24-.14.16-.21.35-.21.59,0,.33.2.77.6,1.33Z" fill="#4c4c4c"/>
        <path d="M219.62,93.5l.05,1.68h-.23c-.05-.37-.15-.67-.31-.91-.16-.24-.33-.39-.5-.45s-.47-.09-.89-.09h-1.32v2.86h.63c.41,0,.68-.07.81-.21.13-.14.2-.41.2-.83h.25v2.38h-.25c0-.29-.03-.52-.09-.68-.06-.17-.14-.28-.26-.34-.11-.06-.34-.09-.67-.09h-.63v1.68c0,.53.01.88.04,1.04.03.16.09.29.2.37.11.08.32.12.62.12h.23v.23h-3.13v-.23h.21c.29,0,.49-.04.6-.11.11-.07.18-.19.21-.34.03-.15.05-.51.05-1.08v-3.31c0-.54-.02-.88-.05-1.04-.03-.16-.1-.26-.2-.32s-.32-.09-.66-.09h-.12v-.23h5.2Z" fill="#4c4c4c"/>
        <path d="M221.26,96.82c0-1.04.35-1.88,1.04-2.51.7-.63,1.56-.94,2.61-.94s1.93.31,2.63.94c.7.62,1.06,1.47,1.06,2.55s-.34,1.89-1.01,2.54c-.67.65-1.56.97-2.66.97s-1.95-.32-2.64-.97c-.69-.65-1.03-1.5-1.03-2.57ZM222.4,96.86c0,1.08.22,1.9.65,2.44s1.08.82,1.95.82c.76,0,1.36-.27,1.8-.82.44-.54.66-1.35.66-2.43s-.22-1.85-.65-2.41c-.43-.56-1.06-.84-1.89-.84s-1.44.27-1.87.82-.65,1.35-.65,2.42Z" fill="#4c4c4c"/>
        <path d="M237.54,100.24h-1.82c-.32-.23-.81-.82-1.48-1.77-.21-.31-.43-.6-.66-.88-.23-.28-.39-.45-.47-.51-.09-.06-.22-.09-.4-.09h-.27v1.5c0,.53.01.88.04,1.04.02.16.09.29.2.37.11.08.31.12.62.12h.32v.23h-3.23v-.23h.22c.29,0,.49-.04.6-.11.11-.07.18-.19.21-.34.03-.15.04-.51.04-1.08v-3.31c0-.54-.02-.88-.04-1.04s-.1-.26-.2-.32c-.1-.06-.33-.09-.67-.09h-.11v-.23l.96-.05c.64-.03,1.15-.04,1.53-.04.64,0,1.17.06,1.57.18.4.12.73.31.98.59s.37.6.37.97c0,.44-.16.82-.49,1.13-.33.31-.8.51-1.43.58.28.14.74.63,1.36,1.47.51.69.91,1.14,1.2,1.35.29.21.64.32,1.03.34v.23ZM232.44,96.76c.25,0,.51-.02.77-.03.27-.01.5-.05.69-.11.2-.06.35-.15.48-.26.12-.11.22-.26.29-.45.07-.19.1-.41.1-.69,0-.47-.12-.85-.36-1.14-.24-.29-.75-.43-1.55-.43-.12,0-.26,0-.42.02v3.08Z" fill="#4c4c4c"/>
        <path d="M243.3,99.08l2.46-5.58h2.07v.23h-.25c-.33,0-.55.03-.65.08-.1.06-.17.16-.21.31-.03.15-.05.5-.05,1.06v3.31c0,.53.01.88.04,1.04.03.16.09.29.2.37.11.08.31.12.62.12h.3v.23h-3.22v-.23h.24c.29,0,.48-.04.59-.11.11-.07.18-.19.21-.34.03-.15.05-.51.05-1.08v-4.29l-2.67,6.05h-.23l-2.69-6.05v3.95c0,.54.02.91.05,1.1.03.2.14.37.31.51s.41.23.73.25v.23h-2.41v-.23c.29-.02.52-.1.7-.24.18-.14.29-.31.33-.52.04-.21.06-.59.06-1.14v-2.93c0-.54-.02-.88-.05-1.04-.03-.16-.1-.26-.2-.32s-.32-.09-.66-.09h-.18v-.23h2.05l2.47,5.58Z" fill="#4c4c4c"/>
        <path d="M253.44,97.75h-2.56l-.17.43c-.26.62-.39,1.02-.39,1.21,0,.2.07.36.21.46s.31.16.53.16v.23h-2v-.23c.3-.05.52-.15.67-.32s.32-.51.53-1.04c.02-.05.1-.24.24-.58l1.96-4.68h.19l2.25,5.36.31.71c.07.16.16.28.28.38.12.09.29.15.53.17v.23h-2.65v-.23c.32,0,.54-.02.66-.07.11-.05.17-.14.17-.29,0-.07-.08-.29-.23-.65l-.52-1.25ZM253.35,97.53l-1.19-2.87-1.19,2.87h2.38Z" fill="#4c4c4c"/>
        <path d="M263.02,98.25l-.05,1.98h-5.73v-.23h.2c.29,0,.49-.04.6-.11.11-.07.18-.19.21-.34.03-.15.05-.51.05-1.08v-3.31c0-.54-.02-.88-.05-1.04-.03-.16-.1-.26-.2-.32s-.32-.09-.66-.09h-.15v-.23h3.24v.23h-.3c-.33,0-.55.03-.65.08-.1.06-.17.16-.21.31-.03.15-.05.5-.05,1.06v3.53c0,.49.01.79.04.92.03.12.1.22.22.29s.37.1.76.1h.51c.41,0,.72-.04.92-.11.2-.07.39-.23.57-.48.18-.25.35-.64.49-1.17h.23Z" fill="#4c4c4c"/>
        <path d="M271.24,96.61c.77.06,1.33.25,1.71.57.37.33.56.73.56,1.22,0,.42-.13.79-.38,1.1s-.57.51-.97.6c-.39.09-.92.14-1.58.14h-2.65v-.23h.26c.29,0,.49-.04.6-.11.11-.07.18-.19.21-.34.03-.15.04-.51.04-1.08v-3.28c0-.55-.02-.9-.05-1.06-.03-.16-.1-.27-.2-.33s-.32-.09-.66-.09h-.13v-.23l1.11-.03,1.26-.04c1.84,0,2.77.53,2.77,1.59,0,.44-.16.79-.48,1.05-.32.27-.79.44-1.43.54ZM270.02,96.51c.08,0,.15,0,.21,0,.72,0,1.21-.11,1.47-.34s.39-.59.39-1.09c0-.35-.05-.62-.15-.82-.1-.19-.26-.34-.46-.45s-.56-.16-1.05-.16c-.13,0-.26,0-.4.02v2.83ZM270.02,96.76v1.5c0,.64.01,1.05.03,1.22.02.17.09.3.19.39.1.09.3.13.6.13.53,0,.93-.14,1.19-.41.27-.27.4-.68.4-1.22s-.15-.97-.45-1.23c-.3-.26-.83-.4-1.58-.4-.12,0-.25,0-.38,0Z" fill="#4c4c4c"/>
        <path d="M275.49,96.82c0-1.04.35-1.88,1.04-2.51.7-.63,1.56-.94,2.61-.94s1.93.31,2.63.94c.7.62,1.06,1.47,1.06,2.55s-.34,1.89-1.01,2.54c-.67.65-1.56.97-2.66.97s-1.95-.32-2.64-.97c-.69-.65-1.03-1.5-1.03-2.57ZM276.63,96.86c0,1.08.22,1.9.65,2.44s1.08.82,1.95.82c.76,0,1.36-.27,1.8-.82.44-.54.66-1.35.66-2.43s-.22-1.85-.65-2.41c-.43-.56-1.06-.84-1.89-.84s-1.44.27-1.87.82-.65,1.35-.65,2.42Z" fill="#4c4c4c"/>
        <path d="M289.75,93.5h2.25v.23c-.3.02-.52.09-.67.2s-.24.24-.27.39-.05.42-.05.83v2.24c0,.57-.02,1-.07,1.28-.04.28-.17.55-.39.82s-.51.48-.9.64c-.39.16-.84.24-1.34.24-.6,0-1.11-.1-1.52-.31-.42-.2-.71-.47-.89-.79s-.27-.76-.27-1.3v-.69s0-2.1,0-2.1c0-.54-.02-.88-.05-1.04-.03-.16-.1-.26-.2-.32s-.32-.09-.66-.09h-.15v-.23h3.08v.23h-.13c-.33,0-.55.03-.65.08-.1.06-.17.16-.21.31-.03.15-.05.5-.05,1.06v2.12c0,.74.03,1.26.1,1.57.07.31.26.58.57.81.31.23.73.35,1.26.35.41,0,.79-.08,1.12-.23.34-.15.59-.35.75-.58s.26-.47.3-.71.05-.63.05-1.15v-2.3c0-.38-.02-.65-.06-.8s-.14-.27-.28-.36c-.14-.09-.37-.14-.68-.16v-.23Z" fill="#4c4c4c"/>
        <path d="M293.73,95.12h-.23l.03-1.62h6.54l.03,1.62h-.21c-.08-.44-.18-.76-.31-.96-.13-.2-.27-.32-.43-.36-.15-.04-.41-.07-.78-.07h-1.08v4.76c0,.53.01.87.04,1.04.02.17.09.29.2.37s.31.12.62.12h.33v.23h-3.36v-.23h.35c.29,0,.49-.04.6-.11.11-.07.18-.19.21-.34.03-.15.05-.51.05-1.08v-4.76h-1c-.43,0-.73.02-.88.06s-.29.17-.42.38c-.13.21-.23.53-.3.95Z" fill="#4c4c4c"/>
        <path d="M301.63,93.72v-.23h3.08v.23h-.14c-.33,0-.55.03-.65.08-.1.06-.17.16-.21.31-.03.15-.05.5-.05,1.06v3.31c0,.53.01.88.04,1.04.02.16.09.29.2.37s.31.12.62.12h.2v.23h-3.08v-.23h.2c.29,0,.49-.04.6-.11.11-.07.18-.19.21-.34.03-.15.04-.51.04-1.08v-3.31c0-.54-.01-.88-.04-1.04-.03-.16-.1-.26-.2-.32-.1-.06-.33-.09-.67-.09h-.14Z" fill="#4c4c4c"/>
        <path d="M310.69,100.34c-.16.02-.32.02-.5.02-1.08,0-1.97-.32-2.65-.97-.69-.65-1.03-1.5-1.03-2.57s.35-1.87,1.04-2.5c.69-.63,1.56-.95,2.61-.95.64,0,1.27.14,1.87.42s1.05.69,1.36,1.24c.31.55.46,1.16.46,1.82,0,.78-.2,1.46-.6,2.06s-.99,1.01-1.75,1.25l-1.49.82c.1,0,.19-.02.27-.02.74,0,1.58.17,2.54.5.74.26,1.32.38,1.75.38.6,0,.95-.23,1.06-.68h.21c-.06.46-.25.83-.57,1.11-.33.29-.74.43-1.26.43-.34,0-.65-.05-.92-.16-.28-.11-.64-.31-1.08-.59-.8-.51-1.46-.76-1.99-.76-.32,0-.63.13-.92.38-.2.17-.34.25-.41.25-.12,0-.18-.05-.18-.16,0-.08.07-.17.21-.26s.41-.23.81-.42c.08-.04.17-.08.25-.13l.92-.53ZM307.65,96.86c0,1.08.22,1.9.65,2.44s1.08.82,1.95.82c.76,0,1.36-.27,1.8-.82.44-.54.66-1.35.66-2.43s-.22-1.85-.65-2.41c-.43-.56-1.06-.84-1.89-.84s-1.44.27-1.87.82-.65,1.35-.65,2.42Z" fill="#4c4c4c"/>
        <path d="M320.39,93.5h2.25v.23c-.3.02-.52.09-.67.2s-.24.24-.27.39-.05.42-.05.83v2.24c0,.57-.02,1-.07,1.28-.04.28-.17.55-.39.82s-.51.48-.9.64c-.39.16-.84.24-1.34.24-.6,0-1.11-.1-1.52-.31-.42-.2-.71-.47-.89-.79s-.27-.76-.27-1.3v-.69s0-2.1,0-2.1c0-.54-.02-.88-.05-1.04-.03-.16-.1-.26-.2-.32s-.32-.09-.66-.09h-.15v-.23h3.08v.23h-.13c-.33,0-.55.03-.65.08-.1.06-.17.16-.21.31-.03.15-.05.5-.05,1.06v2.12c0,.74.03,1.26.1,1.57.07.31.26.58.57.81.31.23.73.35,1.26.35.41,0,.79-.08,1.12-.23.34-.15.59-.35.75-.58s.26-.47.3-.71.05-.63.05-1.15v-2.3c0-.38-.02-.65-.06-.8s-.14-.27-.28-.36c-.14-.09-.37-.14-.68-.16v-.23Z" fill="#4c4c4c"/>
        <path d="M329.7,98.14h.24l-.14,2.1h-5.58v-.23h.14c.33,0,.55-.04.65-.13.1-.09.16-.2.19-.34.03-.14.04-.49.04-1.05v-3.31c0-.51-.01-.85-.04-1.01s-.09-.28-.19-.34-.31-.1-.64-.1v-.23h4.82l.16,1.68h-.23c-.11-.47-.24-.81-.39-1-.15-.2-.34-.32-.55-.37-.21-.05-.55-.08-1.02-.08h-.94v2.83h.72c.33,0,.56-.03.69-.08.13-.06.22-.14.26-.26s.06-.34.06-.67h.23v2.31h-.23c0-.37-.03-.63-.09-.75-.06-.13-.16-.21-.28-.25s-.33-.06-.61-.06h-.74v1.6c0,.8.05,1.27.15,1.41.1.14.38.21.83.21h.5c.35,0,.65-.05.88-.14.23-.09.45-.28.65-.56.21-.28.37-.67.49-1.17Z" fill="#4c4c4c"/>
      </g>
      <path d="M135.62,49.29c6.89,0,11.46,4.84,11.46,11.8h-20.13c-.14,1.02-.14,2.12-.14,3.28.07,11.53,6.82,15.69,12.76,15.69,3.62,0,6.89-1.5,8.26-3.89v.34c-1.43,4.57-6.21,7.1-11.33,7.1-7.16,0-15.01-5.12-15.01-16.99,0-10.17,5.8-17.33,14.12-17.33ZM127.09,60.41h12.28c4.37,0,1.3-10.44-4.71-10.44-3.82,0-6.76,4.37-7.57,10.44Z" fill="#4c4c4c"/>
      <path d="M146.15,83.54v-.27c2.39,0,5.73-1.16,5.73-9.14v-33.84c0-3.14-1.57-4.37-2.59-4.37v-.27c4.71,0,7.23-1.98,7.92-3.28h.14v41.76c0,7.98,3.34,9.14,5.73,9.14v.27h-16.92Z" fill="#4c4c4c"/>
      <path d="M162.61,83.54v-.27c2.39,0,5.73-1.16,5.73-9.14v-33.84c0-3.14-1.57-4.37-2.59-4.37v-.27c4.71,0,7.23-1.98,7.92-3.28h.14v41.76c0,7.98,3.34,9.14,5.73,9.14v.27h-16.92Z" fill="#4c4c4c"/>
      <path d="M199.07,59.22c-.41-7.16-3-9.89-7.57-9.89-4.3,0-8.12,2.52-5.6,6.48-.34,2.46-1.5,3.62-3.14,3.62s-2.93-1.16-2.8-3.62c.34-4.23,4.37-7.16,10.64-7.16,6.89,0,13.99,3.55,13.99,14.47v10.37c0,4.16.2,7.85,2.39,7.85.68,0,1.57-.34,2.05-.89l.27.34c-.82,1.09-2.66,2.66-5.25,2.66-2.25,0-4.91-1.23-4.91-5.66v-4.09c-.96,4.37-3.68,9.69-11.6,9.69-6.69,0-10.51-3.75-10.51-8.94,0-10.78,16.44-10.37,22.04-15.22ZM182.48,72.73c0,5.12,3.48,9.14,7.98,9.14,7.51,0,8.67-11.4,8.67-15.08v-5.87c-5.46,3.07-16.65,2.52-16.65,11.8Z" fill="#4c4c4c"/>
      <path d="M217.8,58.81c-.21-5.66,4.35-9.52,11.38-9.78,6.07-.23,10.54,2.33,11.04,6.75.3,2.45-1.16,3.66-2.8,3.72-1.77.07-3.04-1.05-3.48-3.49,2.51-4.06-.18-6.48-4.4-6.32-4.84.18-6.42,3.52-6.31,6.52.37,9.89,18.5,7.22,18.9,17.66.21,5.45-4.57,9.25-11.59,9.52-5.8.22-7.93-2.16-9.5-2.1-.61.02-1.15.38-1.79,1.43h-.34s-.38-9.94-.38-9.94h.34c.83,3.92,5.85,10.15,11.98,9.91,3.61-.14,6.05-2.48,5.93-5.82-.34-9.07-18.56-6.81-18.98-18.06Z" fill="#4c4c4c"/>
    </g>
  </g>
</svg>